<?xml version="1.0" encoding="UTF-8" standalone="no"?>
<svg
   id="Layer_1"
   version="1.1"
   viewBox="0 0 102.96899 101.55"
   sodipodi:docname="72.svg"
   inkscape:version="1.3 (0e150ed6c4, 2023-07-21)"
   width="102.96899"
   height="101.55"
   xmlns:inkscape="http://www.inkscape.org/namespaces/inkscape"
   xmlns:sodipodi="http://sodipodi.sourceforge.net/DTD/sodipodi-0.dtd"
   xmlns="http://www.w3.org/2000/svg"
   xmlns:svg="http://www.w3.org/2000/svg">
  <!-- Generator: Adobe Illustrator 30.3.0, SVG Export Plug-In . SVG Version: 2.1.3 Build 182)  -->
  <defs
     id="defs1">
    <style
       id="style1">&#10;      .st0, .st1, .st2 {&#10;        font-family: NunitoSans10pt-Black, 'Nunito Sans 10pt';&#10;        font-weight: 800;&#10;      }&#10;&#10;      .st3 {&#10;        fill: #d85247;&#10;      }&#10;&#10;      .st3, .st4, .st5, .st6, .st7, .st8, .st9, .st10 {&#10;        fill-rule: evenodd;&#10;      }&#10;&#10;      .st11 {&#10;        fill: #758793;&#10;      }&#10;&#10;      .st12 {&#10;        fill: #301410;&#10;      }&#10;&#10;      .st1 {&#10;        font-size: 41.5px;&#10;      }&#10;&#10;      .st4, .st13 {&#10;        fill: #602425;&#10;      }&#10;&#10;      .st14 {&#10;        fill: #4f5c6c;&#10;      }&#10;&#10;      .st15, .st16, .st17 {&#10;        fill: #fff;&#10;      }&#10;&#10;      .st2 {&#10;        fill: #030619;&#10;        font-size: 40.8px;&#10;      }&#10;&#10;      .st18 {&#10;        fill: #d0976f;&#10;      }&#10;&#10;      .st19 {&#10;        fill: #d09972;&#10;      }&#10;&#10;      .st20 {&#10;        fill: #fbd106;&#10;      }&#10;&#10;      .st21 {&#10;        fill: #cec8b7;&#10;      }&#10;&#10;      .st22 {&#10;        fill: #f9a703;&#10;      }&#10;&#10;      .st23 {&#10;        fill: #e3b585;&#10;      }&#10;&#10;      .st5, .st24 {&#10;        fill: #f4bcb8;&#10;      }&#10;&#10;      .st25 {&#10;        fill: #d3cfc5;&#10;      }&#10;&#10;      .st26 {&#10;        fill: #9ca9b0;&#10;      }&#10;&#10;      .st27 {&#10;        fill: #b98060;&#10;      }&#10;&#10;      .st28 {&#10;        fill: #e0ac7e;&#10;      }&#10;&#10;      .st29, .st8 {&#10;        fill: #419ba5;&#10;      }&#10;&#10;      .st30 {&#10;        fill: #e8534f;&#10;      }&#10;&#10;      .st31 {&#10;        font-family: NunitoSans10pt-Medium, 'Nunito Sans 10pt';&#10;        font-weight: 500;&#10;      }&#10;&#10;      .st16 {&#10;        font-size: 16px;&#10;      }&#10;&#10;      .st32 {&#10;        fill: #efede7;&#10;      }&#10;&#10;      .st17 {&#10;        font-size: 18px;&#10;      }&#10;&#10;      .st6 {&#10;        fill: #b32d2a;&#10;      }&#10;&#10;      .st33, .st10 {&#10;        fill: #6eccdb;&#10;      }&#10;&#10;      .st34 {&#10;        fill: none;&#10;        stroke: #000;&#10;        stroke-width: 5.2px;&#10;      }&#10;&#10;      .st7, .st35 {&#10;        fill: #79372c;&#10;      }&#10;&#10;      .st36 {&#10;        fill: #e2b181;&#10;      }&#10;&#10;      .st37 {&#10;        fill: #0090d4;&#10;      }&#10;&#10;      .st38 {&#10;        fill: #067ac1;&#10;      }&#10;&#10;      .st39 {&#10;        fill: #a44f3d;&#10;      }&#10;&#10;      .st9 {&#10;        fill: #fcf8f9;&#10;      }&#10;&#10;      .st40 {&#10;        fill: #bf8c52;&#10;      }&#10;    </style>
  </defs>
  <g
     id="svg1"
     transform="translate(-1642.131,-43.150001)">
    <sodipodi:namedview
       id="namedview1"
       bordercolor="#666666"
       borderopacity="1.0"
       pagecolor="#ffffff"
       inkscape:showpageshadow="2"
       inkscape:pageopacity="0.0"
       inkscape:pagecheckerboard="0"
       inkscape:deskcolor="#d1d1d1"
       inkscape:zoom="0.83958333"
       inkscape:cx="-901.63772"
       inkscape:cy="373.3995"
       inkscape:window-width="1920"
       inkscape:window-height="1017"
       inkscape:window-x="-8"
       inkscape:window-y="-8"
       inkscape:window-maximized="1"
       inkscape:current-layer="Layer_1" />
    <g
       id="g1055">
      <path
         id="path1042"
         class="st7"
         d="m 1745.1,94.6 c -3.1,66.8 -99.7,66.8 -102.9,0 -3.2,-68.6 106,-68.6 102.8,0 v 0 z" />
      <path
         id="path1043"
         class="st8"
         d="m 1738.2,92.3 c -2.8,59.5 -88.9,59.5 -91.7,0 -2.8,-61.2 94.6,-61.2 91.7,0 z" />
      <path
         id="path1044"
         class="st10"
         d="m 1652.5,114.5 c -3.4,-6.1 -5.6,-13.5 -6,-22 -2.7,-58.2 85.2,-61.1 91.4,-8.7 -7.7,43.3 -57.7,53.5 -85.4,30.7 z" />
      <path
         id="path1045"
         class="st9"
         d="m 1665.1,71.2 c 5.3,-9 0.2,-16.5 -8.1,-4.6 -8.5,12.2 0.4,17.7 8.1,4.6 z m 7.7,-15.7 c 1.8,0.5 2.8,1.8 2.3,3.6 -0.5,1.8 -2.5,2.9 -4.3,2.4 -1.8,-0.5 -2.5,-2.3 -2,-4.1 0.5,-1.8 2.1,-2.4 4,-1.9 z" />
      <g
         id="g1054">
        <g
           id="g1049">
          <path
             class="st13"
             d="m 1719.4,99.4 v 13 c 0,2.7 -2.2,5 -5,5 h -12.1 c -1.7,0 -3.2,-0.8 -4,-2.1 -0.6,-0.8 -0.9,-1.8 -0.9,-2.9 0,-2.7 2.2,-5 5,-5 h 7.2 v -8 c 0,-2.7 2.2,-5 5,-5 2.8,0 4.7,2 4.9,4.5 v 0.5 0 z"
             id="path1046" />
          <path
             class="st13"
             d="m 1690.5,112.4 c 0,2.7 -2.2,5 -5,5 h -12.1 c -1.7,0 -3.2,-0.8 -4.1,-2.1 -0.6,-0.8 -0.9,-1.8 -0.9,-2.9 v -13 c 0,-2.7 2.2,-5 5,-5 2.8,0 4.7,2 4.9,4.5 v 8.5 h 7.1 c 2.6,0 4.7,2 4.9,4.5 0.2,0.2 0.2,0.3 0.2,0.5 z"
             id="path1047" />
          <path
             class="st13"
             d="m 1719.4,73 v 13 c 0,2.7 -2.2,5 -5,5 -2.8,0 -3.2,-0.8 -4,-2.1 -0.6,-0.8 -0.9,-1.8 -0.9,-2.9 v -8 h -7.2 c -1.7,0 -3.2,-0.8 -4,-2.1 -0.6,-0.8 -0.9,-1.8 -0.9,-2.9 0,-2.7 2.2,-5 5,-5 h 12.1 c 2.6,0 4.7,2 4.9,4.5 z"
             id="path1048" />
          <path
             class="st13"
             d="m 1690.5,73 c 0,2.7 -2.2,5 -5,5 h -7.1 v 8 c 0,2.7 -2.2,5 -5,5 -2.8,0 -3.2,-0.8 -4.1,-2.1 -0.6,-0.8 -0.9,-1.8 -0.9,-2.9 V 73 c 0,-2.7 2.2,-5 5,-5 h 12.1 c 2.6,0 4.7,2 4.9,4.5 v 0.5 0 z"
             id="path1049" />
        </g>
        <g
           id="g1053">
          <path
             class="st35"
             d="m 1719.4,99.4 v 13 c 0,2.7 -2.2,5 -5,5 h -12.1 c -1.7,0 -3.2,-0.8 -4,-2.1 v -0.5 c 0,-2.7 2.2,-5 5,-5 h 7.2 v -8 c 0,-2.7 2.2,-5 5,-5 2.8,0 3.1,0.8 4,2.1 v 0.5 0 z"
             id="path1050" />
          <path
             class="st35"
             d="m 1690.5,112.4 c 0,2.7 -2.2,5 -5,5 h -12.1 c -1.7,0 -3.2,-0.8 -4.1,-2.1 v -13.5 c 0,-2.7 2.2,-5 5,-5 2.8,0 3.2,0.8 4.1,2.1 v 8.5 h 0.9 v 2.4 h 7.2 c 1.7,0 3.2,0.8 4,2.1 z"
             id="path1051" />
          <path
             class="st35"
             d="m 1719.4,73 v 13 c 0,2.7 -2.2,5 -5,5 -2.8,0 -3.2,-0.8 -4,-2.1 v -8.5 h -0.9 V 78 h -7.2 c -1.7,0 -3.2,-0.8 -4,-2.1 v -0.5 c 0,-2.7 2.2,-5 5,-5 h 12.1 c 1.7,0 3.1,0.8 4,2.1 z"
             id="path1052" />
          <path
             class="st35"
             d="m 1690.5,73 c 0,2.7 -2.2,5 -5,5 h -7.1 v 8 c 0,2.7 -2.2,5 -5,5 -2.8,0 -3.2,-0.8 -4.1,-2.1 V 75.4 c 0,-2.7 2.2,-5 5,-5 h 12.1 c 1.7,0 3.2,0.8 4,2.1 v 0.5 0 z"
             id="path1053" />
        </g>
      </g>
    </g>
  </g>
</svg>
